<svg width="156" height="17" viewBox="0 0 156 17" fill="none" xmlns="http://www.w3.org/2000/svg">
<path d="M2.16 13.92H9.05455V15.84H0V0.392727H2.16V13.92Z" fill="white"/>
<path d="M26.0611 8.09454C26.0611 9.28727 25.8502 10.3855 25.4284 11.3891C25.0211 12.3782 24.4539 13.2364 23.7266 13.9636C22.9993 14.6764 22.1339 15.2364 21.1302 15.6436C20.1266 16.0364 19.0357 16.2327 17.8575 16.2327C16.6793 16.2327 15.5884 16.0364 14.5848 15.6436C13.5957 15.2364 12.7375 14.6764 12.0102 13.9636C11.283 13.2364 10.7157 12.3782 10.3084 11.3891C9.90114 10.3855 9.6975 9.28727 9.6975 8.09454C9.6975 6.88727 9.90114 5.78909 10.3084 4.8C10.7157 3.79636 11.283 2.94545 12.0102 2.24727C12.7375 1.53454 13.5957 0.981817 14.5848 0.58909C15.5884 0.196363 16.6793 0 17.8575 0C19.0357 0 20.1266 0.196363 21.1302 0.58909C22.1339 0.981817 22.9993 1.53454 23.7266 2.24727C24.4539 2.94545 25.0211 3.79636 25.4284 4.8C25.8502 5.78909 26.0611 6.88727 26.0611 8.09454ZM23.7266 8.09454C23.7266 7.25091 23.5884 6.45818 23.312 5.71636C23.0357 4.96 22.643 4.29818 22.1339 3.73091C21.6248 3.16364 21.0066 2.72 20.2793 2.4C19.5666 2.06545 18.7593 1.89818 17.8575 1.89818C16.9702 1.89818 16.163 2.06545 15.4357 2.4C14.723 2.72 14.112 3.16364 13.603 3.73091C13.1084 4.29818 12.723 4.96 12.4466 5.71636C12.1702 6.45818 12.032 7.25091 12.032 8.09454C12.032 8.95273 12.1702 9.76 12.4466 10.5164C12.723 11.2727 13.1157 11.9345 13.6248 12.5018C14.1339 13.0545 14.7448 13.4909 15.4575 13.8109C16.1702 14.1309 16.9702 14.2909 17.8575 14.2909C18.7448 14.2909 19.552 14.1309 20.2793 13.8109C21.0066 13.4909 21.6248 13.0545 22.1339 12.5018C22.643 11.9345 23.0357 11.2727 23.312 10.5164C23.5884 9.76 23.7266 8.95273 23.7266 8.09454Z" fill="white"/>
<path d="M40.6495 3.57818C40.184 3.06909 39.5877 2.66182 38.8604 2.35636C38.1477 2.05091 37.3477 1.89818 36.4604 1.89818C35.5586 1.89818 34.744 2.06545 34.0168 2.4C33.2895 2.72 32.6713 3.16364 32.1622 3.73091C31.6531 4.29818 31.2604 4.96 30.984 5.71636C30.7077 6.45818 30.5695 7.25091 30.5695 8.09454C30.5695 8.95273 30.7077 9.76 30.984 10.5164C31.2604 11.2727 31.6531 11.9345 32.1622 12.5018C32.6713 13.0545 33.2968 13.4909 34.0386 13.8109C34.7804 14.1309 35.6095 14.2909 36.5259 14.2909C37.2531 14.2909 37.9222 14.2255 38.5331 14.0945C39.144 13.9636 39.6749 13.7745 40.1259 13.5273V9.22909H36.7004V7.39636H42.264V14.88C41.4495 15.3164 40.5622 15.6509 39.6022 15.8836C38.6422 16.1164 37.5949 16.2327 36.4604 16.2327C35.2531 16.2327 34.1404 16.0364 33.1222 15.6436C32.1186 15.2364 31.2531 14.6764 30.5259 13.9636C29.7986 13.2364 29.2313 12.3782 28.824 11.3891C28.4168 10.3855 28.2131 9.28727 28.2131 8.09454C28.2131 6.88727 28.4168 5.78909 28.824 4.8C29.2459 3.79636 29.8204 2.94545 30.5477 2.24727C31.2895 1.53454 32.1622 0.981817 33.1659 0.58909C34.1695 0.196363 35.2604 0 36.4386 0C37.6749 0 38.7731 0.181818 39.7331 0.545454C40.7077 0.90909 41.5149 1.39636 42.1549 2.00727L40.6495 3.57818Z" fill="white"/>
<path d="M61.5583 8.09454C61.5583 9.28727 61.3474 10.3855 60.9256 11.3891C60.5183 12.3782 59.951 13.2364 59.2238 13.9636C58.4965 14.6764 57.631 15.2364 56.6274 15.6436C55.6238 16.0364 54.5328 16.2327 53.3547 16.2327C52.1765 16.2327 51.0856 16.0364 50.0819 15.6436C49.0928 15.2364 48.2347 14.6764 47.5074 13.9636C46.7801 13.2364 46.2128 12.3782 45.8056 11.3891C45.3983 10.3855 45.1947 9.28727 45.1947 8.09454C45.1947 6.88727 45.3983 5.78909 45.8056 4.8C46.2128 3.79636 46.7801 2.94545 47.5074 2.24727C48.2347 1.53454 49.0928 0.981817 50.0819 0.58909C51.0856 0.196363 52.1765 0 53.3547 0C54.5328 0 55.6238 0.196363 56.6274 0.58909C57.631 0.981817 58.4965 1.53454 59.2238 2.24727C59.951 2.94545 60.5183 3.79636 60.9256 4.8C61.3474 5.78909 61.5583 6.88727 61.5583 8.09454ZM59.2238 8.09454C59.2238 7.25091 59.0856 6.45818 58.8092 5.71636C58.5328 4.96 58.1401 4.29818 57.631 3.73091C57.1219 3.16364 56.5038 2.72 55.7765 2.4C55.0638 2.06545 54.2565 1.89818 53.3547 1.89818C52.4674 1.89818 51.6601 2.06545 50.9328 2.4C50.2201 2.72 49.6092 3.16364 49.1001 3.73091C48.6056 4.29818 48.2201 4.96 47.9438 5.71636C47.6674 6.45818 47.5292 7.25091 47.5292 8.09454C47.5292 8.95273 47.6674 9.76 47.9438 10.5164C48.2201 11.2727 48.6128 11.9345 49.1219 12.5018C49.631 13.0545 50.2419 13.4909 50.9547 13.8109C51.6674 14.1309 52.4674 14.2909 53.3547 14.2909C54.2419 14.2909 55.0492 14.1309 55.7765 13.8109C56.5038 13.4909 57.1219 13.0545 57.631 12.5018C58.1401 11.9345 58.5328 11.2727 58.8092 10.5164C59.0856 9.76 59.2238 8.95273 59.2238 8.09454Z" fill="white"/>
<path d="M83.1939 13.44C82.583 14.2691 81.7903 14.9455 80.8158 15.4691C79.8412 15.9782 78.6703 16.2327 77.303 16.2327C76.1248 16.2327 75.0339 16.0364 74.0303 15.6436C73.0412 15.2364 72.183 14.6764 71.4557 13.9636C70.743 13.2364 70.183 12.3782 69.7757 11.3891C69.3685 10.3855 69.1648 9.28727 69.1648 8.09454C69.1648 6.88727 69.3685 5.78909 69.7757 4.8C70.1976 3.79636 70.7721 2.94545 71.4994 2.24727C72.2412 1.53454 73.1139 0.981817 74.1176 0.58909C75.1212 0.196363 76.2121 0 77.3903 0C77.9139 0 78.4448 0.0509089 78.983 0.152727C79.5212 0.254545 80.0376 0.407273 80.5321 0.610909C81.0267 0.814545 81.4776 1.06909 81.8848 1.37454C82.2921 1.66545 82.6412 2.00727 82.9321 2.4L81.2303 3.70909C80.8521 3.18545 80.3139 2.75636 79.6157 2.42182C78.9321 2.07273 78.1903 1.89818 77.3903 1.89818C76.4885 1.89818 75.6739 2.06545 74.9467 2.4C74.2339 2.72 73.623 3.16364 73.1139 3.73091C72.6048 4.29818 72.2121 4.96 71.9357 5.71636C71.6594 6.45818 71.5212 7.25091 71.5212 8.09454C71.5212 8.96727 71.6521 9.78182 71.9139 10.5382C72.1903 11.2945 72.5757 11.9564 73.0703 12.5236C73.5794 13.0764 74.1903 13.5127 74.903 13.8327C75.6303 14.1527 76.4376 14.3127 77.3248 14.3127C78.1976 14.3127 78.9903 14.1382 79.703 13.7891C80.4157 13.44 81.0048 12.9309 81.4703 12.2618L83.1939 13.44Z" fill="white"/>
<path d="M87.5577 13.92H94.4523V15.84H85.3977V0.392727H87.5577V13.92Z" fill="white"/>
<path d="M98.7012 15.84H96.5412V0.392727H98.7012V15.84Z" fill="white"/>
<path d="M104.624 13.92H112.697V15.84H102.465V0.392727H112.37V2.29091H104.624V6.91636H111.912V8.77091H104.624V13.92Z" fill="white"/>
<path d="M126.455 12.7418H126.499V0.392727H128.659V15.84H125.932L117.772 3.22909H117.728V15.84H115.568V0.392727H118.383L126.455 12.7418Z" fill="white"/>
<path d="M137.833 15.84H135.673V2.29091H130.72V0.392727H142.786V2.29091H137.833V15.84Z" fill="white"/>
<path d="M147.004 13.92H155.076V15.84H144.844V0.392727H154.749V2.29091H147.004V6.91636H154.291V8.77091H147.004V13.92Z" fill="white"/>
</svg>
