<svg width="15" height="15" viewBox="0 0 15 15" fill="none" xmlns="http://www.w3.org/2000/svg">
<path d="M0 6.91797C0 7.27344 0.136719 7.60156 0.382812 7.84766L6.15234 13.6172C6.67188 14.1367 7.51953 14.1367 8.01172 13.6172L13.5898 8.03906C14.1094 7.54688 14.1094 6.69922 13.5898 6.17969L7.82031 0.410156C7.57422 0.164062 7.24609 0 6.89062 0H1.3125C0.574219 0 0 0.601562 0 1.3125V6.91797ZM3.0625 1.75C3.77344 1.75 4.375 2.35156 4.375 3.0625C4.375 3.80078 3.77344 4.375 3.0625 4.375C2.32422 4.375 1.75 3.80078 1.75 3.0625C1.75 2.35156 2.32422 1.75 3.0625 1.75Z" fill="#AEB0B3"/>
</svg>
