<svg width="13" height="14" viewBox="0 0 13 14" fill="none" xmlns="http://www.w3.org/2000/svg">
<path d="M0.328125 5.25C0.136719 5.25 0 5.41406 0 5.57812V12.6875C0 13.4258 0.574219 14 1.3125 14H10.9375C11.6484 14 12.25 13.4258 12.25 12.6875V5.57812C12.25 5.41406 12.0859 5.25 11.9219 5.25H0.328125ZM12.25 4.04688V3.0625C12.25 2.35156 11.6484 1.75 10.9375 1.75H9.625V0.328125C9.625 0.164062 9.46094 0 9.29688 0H8.20312C8.01172 0 7.875 0.164062 7.875 0.328125V1.75H4.375V0.328125C4.375 0.164062 4.21094 0 4.04688 0H2.95312C2.76172 0 2.625 0.164062 2.625 0.328125V1.75H1.3125C0.574219 1.75 0 2.35156 0 3.0625V4.04688C0 4.23828 0.136719 4.375 0.328125 4.375H11.9219C12.0859 4.375 12.25 4.23828 12.25 4.04688Z" fill="#AEB0B3"/>
</svg>
